<?xml version="1.0" standalone="no"?>
<!DOCTYPE svg PUBLIC "-//W3C//DTD SVG 20010904//EN"
 "http://www.w3.org/TR/2001/REC-SVG-20010904/DTD/svg10.dtd">
<svg version="1.0" xmlns="http://www.w3.org/2000/svg"
 width="400.000000pt" height="372.000000pt" viewBox="0 0 400.000000 372.000000"
 preserveAspectRatio="xMidYMid meet">

<g transform="translate(0.000000,372.000000) scale(0.100000,-0.100000)"
fill="#000" stroke="none">
<path d="M1465 3450 c-11 -4 -31 -20 -45 -35 l-25 -27 -3 -254 c-2 -172 0
-254 8 -254 7 0 10 82 10 249 0 235 1 250 20 274 12 15 38 31 58 37 24 6 287
10 735 10 746 0 737 1 782 -50 19 -21 20 -40 25 -404 l6 -381 2 378 c2 321 0
382 -13 407 -32 62 -2 60 -807 59 -403 0 -742 -4 -753 -9z"/>
<path d="M2110 3290 c0 -6 43 -10 110 -10 67 0 110 4 110 10 0 6 -43 10 -110
10 -67 0 -110 -4 -110 -10z"/>
<path d="M2626 3097 c-25 -25 -46 -101 -46 -169 l0 -41 -39 60 c-112 173 -183
81 -86 -112 19 -38 35 -70 35 -72 0 -2 -7 -3 -16 -3 -14 0 -16 -11 -12 -72 4
-66 14 -98 56 -180 2 -5 -42 -8 -97 -8 l-101 0 0 -100 0 -100 435 0 435 0 0
100 0 100 -180 0 c-99 0 -180 2 -180 4 0 2 12 28 27 57 34 69 46 199 18 199
-12 0 -15 5 -10 18 37 86 29 125 -23 106 l-28 -11 1 76 c0 71 -1 76 -22 79
-18 3 -30 -8 -55 -49 l-33 -53 -2 55 c-4 86 -13 118 -33 129 -16 9 -25 6 -44
-13z m48 -13 c12 -33 18 -154 11 -238 l-7 -86 -28 0 c-24 0 -30 6 -40 36 -18
52 -9 230 13 272 19 34 41 42 51 16z m-143 -151 c20 -32 69 -149 69 -165 0 -4
-20 -8 -44 -8 l-44 0 -36 70 c-37 69 -55 152 -42 186 6 15 11 13 42 -17 19
-19 44 -48 55 -66z m275 19 c-4 -20 -16 -72 -29 -114 -21 -73 -24 -78 -49 -78
-27 0 -28 2 -28 55 0 59 32 137 73 183 18 20 22 21 30 6 5 -8 6 -32 3 -52z
m64 -102 c0 -10 -8 -35 -17 -55 -14 -29 -22 -35 -49 -35 -33 0 -33 0 -22 33
18 58 88 103 88 57z m4 -126 c4 -9 4 -25 1 -34 -6 -18 -15 -19 -120 -19 -14 0
-32 0 -40 0 -8 0 -26 0 -40 0 -14 0 -32 0 -40 0 -8 0 -26 0 -40 0 -14 0 -33 0
-42 0 -10 0 -33 0 -50 0 -31 0 -33 3 -33 35 l0 34 199 0 c175 0 200 -2 205
-16z m-79 -75 c6 0 19 2 30 5 33 10 47 -6 35 -38 -8 -23 -13 -26 -25 -16 -10
8 -19 9 -34 0 -14 -7 -27 -8 -38 -1 -11 6 -24 6 -35 0 -12 -6 -24 -6 -35 0
-11 6 -24 6 -35 0 -12 -6 -25 -6 -38 1 -14 8 -25 7 -39 -2 -15 -9 -23 -9 -36
2 -12 10 -19 10 -27 2 -7 -7 -15 -12 -19 -12 -9 0 -21 48 -15 59 4 5 235 6
311 0z m-247 -71 c10 -10 17 -10 32 0 15 9 26 10 41 2 15 -8 24 -8 34 0 10 8
19 8 34 0 14 -7 27 -8 38 -1 11 6 24 6 35 0 12 -6 25 -6 38 1 41 22 53 -11 19
-54 -20 -26 -22 -26 -147 -26 l-127 0 -22 34 c-16 25 -19 36 -10 45 14 14 20
14 35 -1z"/>
<path d="M1037 3080 c-21 -17 -27 -30 -27 -59 0 -36 -6 -43 -86 -109 l-85 -71
-32 19 c-45 28 -106 26 -151 -5 l-38 -25 -74 46 c-67 42 -74 49 -74 78 0 43
-28 68 -71 64 -68 -7 -90 -88 -33 -125 22 -14 31 -15 60 -4 33 12 39 11 87
-19 97 -58 99 -61 86 -98 -9 -27 -8 -41 5 -76 9 -24 25 -51 36 -61 18 -17 18
-20 -38 -131 -52 -104 -59 -114 -84 -114 -35 0 -68 -32 -68 -65 0 -30 41 -75
68 -75 11 0 31 9 46 21 28 22 35 65 15 97 -9 15 -1 38 44 129 l56 110 48 -4
c40 -4 55 0 85 21 l38 25 65 -45 c57 -40 65 -49 65 -78 0 -54 52 -86 100 -61
80 41 22 159 -61 125 -24 -10 -34 -7 -92 32 -59 39 -65 46 -59 68 10 37 6 98
-8 116 -7 8 -11 16 -9 17 2 2 43 36 90 75 80 66 89 71 113 62 20 -7 34 -6 55
5 44 22 54 67 24 103 -27 32 -64 37 -96 12z"/>
<path d="M1605 2918 c-70 -25 -122 -86 -139 -164 -4 -17 -2 -61 4 -97 14 -75
1 -111 -51 -149 -34 -25 -63 -73 -54 -88 3 -5 -26 -25 -64 -45 -99 -49 -106
-63 -105 -205 1 -120 17 -271 39 -377 l13 -63 -45 0 c-88 0 -129 -81 -84 -168
21 -41 100 -120 173 -175 l48 -36 -58 0 c-50 0 -60 -3 -80 -27 -18 -20 -22
-35 -18 -56 l6 -28 -61 0 -60 0 3 -103 3 -102 720 0 720 0 0 100 0 100 -96 3
-96 3 24 46 c12 26 23 57 23 70 0 33 -36 100 -60 113 -17 9 -18 13 -7 24 7 8
26 14 42 14 31 0 65 32 65 61 0 9 -6 26 -14 36 -13 18 -9 29 41 113 31 51 53
95 50 99 -4 3 -70 -11 -147 -32 l-141 -37 -26 23 c-14 13 -46 51 -72 84 -38
48 -52 78 -70 145 -40 151 -101 327 -121 353 -19 24 -69 52 -134 77 l-28 10
26 21 c15 12 39 44 54 72 23 46 27 64 28 157 1 58 5 114 9 124 13 29 -15 68
-65 94 -49 24 -140 29 -195 10z m176 -150 c14 0 32 2 40 4 11 2 15 -14 17 -76
3 -93 -15 -157 -59 -205 -29 -32 -33 -33 -86 -28 l-55 6 7 -27 c3 -14 15 -37
25 -52 20 -28 15 -42 -30 -73 -42 -29 -66 -23 -74 21 -11 66 -7 90 24 139 40
63 38 87 -10 139 -22 24 -40 51 -40 59 0 23 28 30 56 14 34 -18 60 -1 57 37
-5 51 2 57 55 48 26 -4 59 -7 73 -6z m54 -383 c35 -17 58 -36 72 -62 19 -33
92 -259 123 -380 6 -26 31 -67 63 -104 88 -103 86 -95 26 -112 l-52 -16 -74
57 c-40 31 -75 63 -77 72 -2 8 -12 58 -21 110 -26 143 -34 140 -35 -9 0 -117
3 -146 27 -223 14 -48 30 -88 35 -88 11 0 12 -7 -22 100 -21 68 -29 113 -29
160 l2 65 15 -69 c16 -70 31 -88 136 -161 18 -13 19 -16 4 -27 -9 -7 -51 -68
-93 -135 -43 -68 -81 -123 -84 -123 -3 0 -55 13 -116 28 l-110 28 99 34 100
33 22 -29 c13 -15 26 -25 30 -21 15 15 -57 75 -98 81 -33 6 -39 10 -36 29 3
19 8 22 43 19 25 -2 57 -14 84 -33 23 -16 47 -29 53 -27 21 7 -83 69 -132 78
-31 6 -118 44 -216 96 l-164 85 0 100 c0 59 -4 99 -10 99 -11 0 -13 -68 -4
-156 l6 -60 164 -83 c90 -46 164 -88 164 -95 -1 -37 -14 -39 -136 -21 -155 23
-324 88 -335 128 -37 140 -58 526 -30 560 15 19 141 81 148 73 3 -3 -6 -19
-21 -36 -44 -53 -29 -139 29 -170 36 -19 103 -15 135 8 14 10 33 34 43 54 13
26 27 38 57 47 44 13 75 47 91 101 11 36 13 38 43 29 17 -5 54 -20 81 -34z
m625 -591 c0 -3 -21 -41 -46 -83 -42 -69 -50 -78 -77 -78 -36 0 -57 -25 -57
-67 l0 -31 -197 -48 c-108 -26 -198 -46 -199 -44 -2 2 31 58 73 124 l77 120
180 47 c100 26 192 51 206 56 31 11 40 12 40 4z m-1177 -93 c28 -11 108 -42
176 -70 68 -28 147 -58 177 -68 30 -9 54 -20 54 -24 0 -4 -23 -13 -51 -20 -97
-25 -78 -64 47 -94 l89 -21 -122 -41 c-98 -33 -123 -38 -127 -27 -10 26 -56
36 -108 24 l-47 -12 -63 48 c-136 103 -189 167 -190 234 -1 82 61 109 165 71z
m1091 -97 c30 -29 9 -84 -31 -84 -21 0 -53 29 -53 48 0 22 30 52 51 52 10 0
25 -7 33 -16z m-644 -18 c65 -13 65 -13 35 -25 -26 -11 -40 -10 -112 14 -46
14 -83 29 -83 32 0 6 66 -3 160 -21z m565 -76 c-3 -5 -18 -10 -33 -9 -24 0
-25 1 -7 9 28 12 47 12 40 0z m-26 -35 c16 -8 41 -29 56 -47 23 -27 26 -39 23
-79 -3 -26 -15 -60 -27 -78 l-22 -31 -375 0 -374 0 0 34 c0 23 6 36 18 41 186
72 547 173 625 174 26 1 61 -6 76 -14z m-541 -22 c59 -15 97 -29 84 -31 -29
-4 -212 38 -212 49 0 13 10 12 128 -18z m-250 -148 c38 -6 42 -9 42 -36 l0
-30 -92 3 c-91 3 -93 3 -93 28 0 29 38 52 75 46 14 -3 44 -8 68 -11z"/>
<path d="M3034 2075 c0 -71 1 -99 3 -62 2 37 2 96 0 130 -2 34 -3 4 -3 -68z"/>
<path d="M2895 1840 c-32 -12 -83 -38 -113 -58 -54 -36 -132 -122 -132 -147 0
-7 18 -36 40 -64 140 -176 403 -213 598 -84 51 34 132 123 132 145 0 21 -67
101 -111 134 -88 64 -152 87 -258 91 -79 3 -107 0 -156 -17z m270 -17 c27 -8
68 -26 91 -39 50 -30 144 -127 144 -149 0 -9 -26 -43 -57 -76 -155 -162 -394
-180 -575 -42 -60 46 -102 105 -94 131 11 33 123 132 180 158 94 43 206 49
311 17z"/>
<path d="M2981 1753 c-74 -39 -101 -121 -59 -183 51 -77 142 -88 204 -26 43
43 52 93 28 142 -36 72 -110 100 -173 67z m137 -62 c21 -13 11 -55 -14 -59
-30 -4 -48 21 -34 47 11 22 27 26 48 12z"/>
<path d="M3533 1820 c-34 -58 -27 -73 7 -18 32 51 35 58 23 58 -5 0 -18 -18
-30 -40z"/>
<path d="M3618 1633 c18 -2 45 -2 60 0 15 2 0 4 -33 4 -33 0 -45 -2 -27 -4z"/>
<path d="M432 1607 c-36 -39 -28 -88 19 -113 28 -14 29 -16 29 -99 0 -47 -4
-85 -8 -85 -4 0 -23 16 -42 35 -25 26 -34 44 -34 72 -1 29 -7 40 -27 52 -24
13 -29 13 -53 -2 -53 -35 -17 -118 45 -102 19 5 34 -4 73 -44 26 -27 45 -54
42 -60 -4 -6 -37 -11 -76 -11 l-69 0 5 -32 c12 -87 20 -179 16 -183 -3 -3 -41
-5 -84 -5 l-78 0 0 -404 0 -405 53 -3 c46 -3 52 -6 55 -26 3 -19 9 -23 35 -20
24 2 32 8 32 23 0 19 7 20 225 20 218 0 225 -1 225 -20 0 -15 8 -21 32 -23 26
-3 32 1 35 20 3 20 9 23 56 26 l52 3 0 405 0 404 -50 0 -50 0 0 164 c0 151
-10 226 -30 226 -4 0 -10 9 -13 20 -4 15 -14 20 -36 20 -24 0 -31 -4 -31 -20
0 -11 -5 -20 -11 -20 -27 0 -39 -70 -39 -230 l0 -160 -61 0 -62 0 6 38 c3 20
9 70 13 110 l7 72 -72 0 -71 0 0 43 c0 51 36 94 74 89 25 -3 56 21 56 43 0 19
-28 45 -49 45 -25 0 -41 -20 -41 -50 0 -15 -9 -35 -20 -45 -20 -18 -20 -17
-20 48 0 51 3 67 14 67 18 0 56 47 56 70 0 10 -9 29 -21 44 -27 34 -77 36
-107 3z m88 -7 c27 -27 26 -65 -2 -85 -22 -15 -23 -15 -29 22 -6 35 -6 36 -8
7 -1 -40 -10 -48 -33 -27 -25 23 -23 68 4 87 30 21 44 20 68 -4z m-140 -160
c16 -30 2 -45 -21 -24 -10 9 -19 12 -19 6 0 -6 5 -14 10 -17 17 -10 11 -25
-10 -25 -27 0 -44 34 -30 60 14 26 56 26 70 0z m215 -15 c0 -12 -8 -21 -20
-24 -17 -3 -18 -2 -5 14 14 16 13 17 -8 11 -17 -6 -21 -4 -16 9 9 23 49 15 49
-10z m235 5 c0 -5 -9 -10 -20 -10 -11 0 -20 5 -20 10 0 6 9 10 20 10 11 0 20
-4 20 -10z m30 -34 c0 -2 3 -11 6 -20 5 -14 -3 -16 -55 -16 -59 0 -61 1 -51
20 8 15 21 20 55 20 25 0 45 -2 45 -4z m18 -212 l-3 -149 -62 -3 -63 -3 0 155
0 155 58 3 c31 2 60 0 65 -3 4 -3 6 -73 5 -155z m-268 21 l0 -35 -124 0 c-120
0 -124 1 -130 23 -12 47 -13 47 124 47 l130 0 0 -35z m-10 -112 l-5 -58 -104
-3 c-57 -1 -107 1 -111 5 -4 4 -10 32 -14 61 l-7 52 123 0 123 0 -5 -57z m370
-270 l0 -193 -380 0 -380 0 0 196 0 195 380 -3 380 -3 0 -192z m0 -398 l0
-195 -380 0 -380 0 0 195 0 195 380 0 380 0 0 -195z"/>
<path d="M800 1235 c-19 -19 -29 -35 -24 -35 13 0 69 58 63 65 -3 2 -21 -11
-39 -30z"/>
<path d="M810 1175 c-7 -8 -8 -15 -2 -15 5 0 15 7 22 15 7 8 8 15 2 15 -5 0
-15 -7 -22 -15z"/>
<path d="M392 1094 c4 -21 22 -23 26 -1 2 10 -3 17 -13 17 -10 0 -15 -6 -13
-16z"/>
<path d="M472 1094 c4 -21 22 -23 26 -1 2 10 -3 17 -13 17 -10 0 -15 -6 -13
-16z"/>
<path d="M544 1099 c-10 -17 13 -36 27 -22 12 12 4 33 -11 33 -5 0 -12 -5 -16
-11z"/>
<path d="M260 825 l0 -145 330 0 330 0 0 145 0 145 -330 0 -330 0 0 -145z
m640 -2 l0 -128 -312 3 -313 3 0 124 0 125 313 0 312 0 0 -127z"/>
<path d="M552 858 c-15 -15 -15 -51 0 -66 7 -7 24 -12 38 -12 31 0 50 17 50
45 0 12 -5 26 -12 33 -15 15 -61 15 -76 0z"/>
<path d="M260 425 l0 -145 330 0 330 0 0 145 0 145 -330 0 -330 0 0 -145z
m640 -5 l0 -130 -311 2 -310 3 -2 128 -2 127 313 0 312 0 0 -130z"/>
<path d="M552 458 c-20 -20 -14 -56 13 -74 23 -15 27 -15 50 0 27 18 31 36 15
67 -12 22 -59 26 -78 7z"/>
<path d="M3510 1494 c0 -13 44 -84 52 -84 10 0 -27 76 -42 85 -5 3 -10 3 -10
-1z"/>
<path d="M3032 787 c-2 -557 -2 -551 -62 -582 -25 -13 -126 -15 -761 -15
l-731 0 -34 34 -34 34 0 291 c0 187 -4 291 -10 291 -6 0 -10 -102 -10 -285 0
-311 2 -324 57 -361 27 -18 60 -19 758 -22 681 -2 732 -1 764 15 75 39 71 7
68 588 l-2 520 -3 -508z"/>
<path d="M3345 905 c-33 -32 -31 -60 3 -95 30 -29 30 -34 16 -147 -4 -36 -9
-42 -34 -48 -88 -19 -136 -125 -95 -206 34 -66 134 -90 200 -49 36 22 65 73
65 114 0 27 -2 26 117 54 36 8 44 7 62 -11 28 -28 79 -27 103 2 53 66 -29 153
-95 101 -15 -12 -27 -30 -27 -40 0 -14 -11 -22 -37 -29 -108 -26 -128 -30
-131 -21 -9 24 -49 64 -77 76 -31 13 -32 14 -28 66 7 89 13 118 27 118 22 0
46 35 46 68 0 66 -69 94 -115 47z"/>
<path d="M2158 343 c34 -2 88 -2 120 0 31 2 3 3 -63 3 -66 0 -92 -1 -57 -3z"/>
</g>
</svg>
